<?xml version="1.0" encoding="UTF-8" standalone="no"?>
<!-- Created with Inkscape (http://www.inkscape.org/) -->

<svg
   width="40.339027mm"
   height="40.413902mm"
   viewBox="0 0 40.339027 40.413902"
   version="1.1"
   id="svg1"
   xml:space="preserve"
   xmlns:xlink="http://www.w3.org/1999/xlink"
   xmlns="http://www.w3.org/2000/svg"
   xmlns:svg="http://www.w3.org/2000/svg"
   xmlns:rdf="http://www.w3.org/1999/02/22-rdf-syntax-ns#"
   xmlns:cc="http://creativecommons.org/ns#"
   xmlns:dc="http://purl.org/dc/elements/1.1/"><title
     id="title129">Signstar Logo</title><defs
     id="defs1"><linearGradient
       id="linearGradient128"><stop
         style="stop-color:#e7c6c6;stop-opacity:1;"
         offset="0"
         id="stop128" /><stop
         style="stop-color:#000000;stop-opacity:1;"
         offset="1"
         id="stop129" /></linearGradient><linearGradient
       id="linearGradient112"><stop
         style="stop-color:#000000;stop-opacity:1;"
         offset="0"
         id="stop113" /><stop
         style="stop-color:#c2c2c2;stop-opacity:0.40970942;"
         offset="1"
         id="stop114" /></linearGradient><linearGradient
       id="linearGradient110"><stop
         style="stop-color:#000000;stop-opacity:1;"
         offset="0"
         id="stop111" /><stop
         style="stop-color:#000000;stop-opacity:0;"
         offset="1"
         id="stop112" /></linearGradient><linearGradient
       id="linearGradient106"><stop
         style="stop-color:#ffffff;stop-opacity:1;"
         offset="0"
         id="stop107" /><stop
         style="stop-color:#000000;stop-opacity:0;"
         offset="1"
         id="stop108" /></linearGradient><linearGradient
       id="linearGradient104"><stop
         style="stop-color:#ffffff;stop-opacity:1;"
         offset="0"
         id="stop106" /><stop
         style="stop-color:#000000;stop-opacity:1;"
         offset="0.50366384"
         id="stop105" /></linearGradient><linearGradient
       id="linearGradient92"><stop
         style="stop-color:#ffffff;stop-opacity:1;"
         offset="0"
         id="stop94" /><stop
         style="stop-color:#ff0000;stop-opacity:1;"
         offset="1"
         id="stop93" /></linearGradient><linearGradient
       id="linearGradient89"><stop
         style="stop-color:#ffffff;stop-opacity:1"
         offset="0"
         id="stop89" /><stop
         style="stop-color:#000000;stop-opacity:1"
         offset="1"
         id="stop90" /></linearGradient><radialGradient
       xlink:href="#linearGradient89"
       id="radialGradient90"
       cx="102.87847"
       cy="91.350578"
       fx="102.87846"
       fy="91.350578"
       r="1.6232085"
       gradientTransform="matrix(-2.5194027,7.4713587e-4,-0.0012477,-4.0949682,334.28916,407.47054)"
       gradientUnits="userSpaceOnUse" /><radialGradient
       xlink:href="#linearGradient92"
       id="radialGradient94"
       cx="117.7723"
       cy="106.2897"
       fx="117.77231"
       fy="106.2897"
       r="2.5518899"
       gradientTransform="matrix(2.6662132,-0.00111674,7.5935308e-4,1.7643437,-197.2285,-112.48166)"
       gradientUnits="userSpaceOnUse" /><radialGradient
       xlink:href="#linearGradient104"
       id="radialGradient106"
       cx="102.8785"
       cy="106.28914"
       fx="102.8785"
       fy="106.28914"
       r="1.6365904"
       gradientTransform="matrix(3.2522115,-0.00439941,0.00513087,3.4074447,-260.15233,-286.80788)"
       gradientUnits="userSpaceOnUse" /><radialGradient
       xlink:href="#linearGradient106"
       id="radialGradient108"
       cx="102.87842"
       cy="91.140999"
       fx="102.87842"
       fy="91.140999"
       r="1.543403"
       gradientTransform="matrix(-2.6496725,7.9010247e-4,-0.00285076,-9.308172,347.83681,881.7445)"
       gradientUnits="userSpaceOnUse" /><radialGradient
       xlink:href="#linearGradient110"
       id="radialGradient112"
       cx="117.11185"
       cy="106.28961"
       fx="117.11185"
       fy="106.28961"
       r="2.4720843"
       gradientTransform="matrix(-5.4266681,9.8910551e-4,-3.2975569e-4,-1.7317567,752.42046,258.87028)"
       gradientUnits="userSpaceOnUse" /><radialGradient
       xlink:href="#linearGradient128"
       id="radialGradient129"
       cx="102.95395"
       cy="106.36473"
       fx="102.95395"
       fy="106.36473"
       r="10.031317"
       gradientTransform="matrix(4.8527309,-2.8364507e-4,2.9055727e-4,4.8376128,-424.65585,-439.60383)"
       gradientUnits="userSpaceOnUse" /><linearGradient
       xlink:href="#linearGradient112"
       id="linearGradient1"
       x1="64.535042"
       y1="35.793377"
       x2="13.764798"
       y2="86.912872"
       gradientUnits="userSpaceOnUse"
       gradientTransform="translate(24.982012,24.915866)" /><linearGradient
       xlink:href="#linearGradient112"
       id="linearGradient7"
       x1="45.47274"
       y1="54.416687"
       x2="54.552311"
       y2="45.55336"
       gradientUnits="userSpaceOnUse"
       gradientTransform="matrix(1.2883239,0,0,1.2384057,10.55838,12.990467)" /><filter
       style="color-interpolation-filters:sRGB"
       id="filter33"
       x="-0.1331825"
       y="-0.13499332"
       width="1.3021355"
       height="1.3062435"><feFlood
         result="flood"
         in="SourceGraphic"
         flood-opacity="0.498039"
         flood-color="rgb(0,0,0)"
         id="feFlood32" /><feGaussianBlur
         result="blur"
         in="SourceGraphic"
         stdDeviation="3.000000"
         id="feGaussianBlur32" /><feOffset
         result="offset"
         in="blur"
         dx="2.000000"
         dy="2.000000"
         id="feOffset32" /><feComposite
         result="comp1"
         operator="in"
         in="flood"
         in2="offset"
         id="feComposite32" /><feComposite
         result="comp2"
         operator="over"
         in="SourceGraphic"
         in2="comp1"
         id="feComposite33" /></filter><filter
       style="color-interpolation-filters:sRGB"
       id="filter35"
       x="-0.90998178"
       y="-0.56305762"
       width="3.0643756"
       height="2.2773469"><feFlood
         result="flood"
         in="SourceGraphic"
         flood-opacity="0.498039"
         flood-color="rgb(0,0,0)"
         id="feFlood33" /><feGaussianBlur
         result="blur"
         in="SourceGraphic"
         stdDeviation="3.000000"
         id="feGaussianBlur33" /><feOffset
         result="offset"
         in="blur"
         dx="2.000000"
         dy="2.000000"
         id="feOffset33" /><feComposite
         result="comp1"
         operator="in"
         in="flood"
         in2="offset"
         id="feComposite34" /><feComposite
         result="comp2"
         operator="over"
         in="SourceGraphic"
         in2="comp1"
         id="feComposite35" /></filter><filter
       style="color-interpolation-filters:sRGB"
       id="filter41"
       x="-0.55548172"
       y="-0.92238883"
       width="2.2601603"
       height="3.0925221"><feFlood
         result="flood"
         in="SourceGraphic"
         flood-opacity="0.498039"
         flood-color="rgb(0,0,0)"
         id="feFlood39" /><feGaussianBlur
         result="blur"
         in="SourceGraphic"
         stdDeviation="3.000000"
         id="feGaussianBlur39" /><feOffset
         result="offset"
         in="blur"
         dx="2.000000"
         dy="2.000000"
         id="feOffset39" /><feComposite
         result="comp1"
         operator="in"
         in="flood"
         in2="offset"
         id="feComposite40" /><feComposite
         result="comp2"
         operator="over"
         in="SourceGraphic"
         in2="comp1"
         id="feComposite41" /></filter></defs><rect
     style="display:inline;fill:none;stroke-width:0.265992;stroke-linejoin:round"
     id="rect1"
     width="40.339031"
     height="40.413902"
     x="4.2947579e-07"
     y="4.6065447e-06" /><circle
     style="display:none;fill:#ffffff;stroke-width:0.473376;stroke-linejoin:round"
     id="path1"
     cx="1.8308719"
     cy="43.025303"
     r="67.100128" /><g
     id="g22"
     style="display:inline"
     transform="translate(-74.999168,-34.586169)"><g
       id="g21"
       style="display:inline"><path
         id="path19"
         style="display:inline;opacity:1;fill:url(#radialGradient94);fill-opacity:1;stroke:url(#radialGradient112);stroke-width:0.492587;stroke-miterlimit:4;stroke-dasharray:none;stroke-dashoffset:0;stroke-opacity:1;filter:url(#filter41)"
         d="m 114.40956,70.879115 a 4.1525083,4.0364078 0 0 0 -4.15247,4.036422 4.1525083,4.0364078 0 0 0 4.15247,4.036394 4.1525083,4.0364078 0 0 0 0.0197,0 h 5.06637 a 4.1524976,4.036397 0 0 0 0.0141,0 4.1524976,4.036397 0 0 0 4.15247,-4.036394 4.1524976,4.036397 0 0 0 -4.15247,-4.036422 4.1524976,4.036397 0 0 0 -0.0141,0 h -5.06927 a 4.1525083,4.0364078 0 0 0 -0.0169,0 z"
         transform="matrix(1.2883239,0,0,1.2384057,-21.626543,-17.865483)" /><path
         id="path21"
         style="opacity:1;fill:url(#radialGradient90);fill-opacity:1;stroke:url(#radialGradient108);stroke-width:0.492587;stroke-miterlimit:4;stroke-dasharray:none;stroke-dashoffset:0;stroke-opacity:1;filter:url(#filter35)"
         d="m 79.076396,30.988559 a 4.0914422,4.0966525 0 0 0 -4.091456,-4.096615 4.0914422,4.0966525 0 0 0 -4.091428,4.096615 4.0914422,4.0966525 0 0 0 0,0.01942 v 4.998228 a 4.0914313,4.0966419 0 0 0 0,0.01387 4.0914313,4.0966419 0 0 0 4.091428,4.096612 4.0914313,4.0966419 0 0 0 4.091456,-4.096612 4.0914313,4.0966419 0 0 0 0,-0.01387 v -5.001085 a 4.0914422,4.0966525 0 0 0 0,-0.01664 z"
         transform="matrix(1.2883239,0,0,1.2384057,-21.626543,-17.865483)" /></g><g
       id="g13"
       style="display:inline"><path
         id="path10"
         style="opacity:1;fill:url(#radialGradient129);fill-opacity:1;stroke:url(#linearGradient1);stroke-width:0.493;stroke-linejoin:round;stroke-dasharray:none;stroke-dashoffset:0;stroke-opacity:1;filter:url(#filter33)"
         d="m 74.981397,47.835982 a 4.0879019,4.0931076 0 0 0 -4.08856,4.093753 v 13.241622 l -9.491984,-9.364309 -0.0059,0.0058 a 4.1317634,4.0496564 23.783333 0 0 -5.824797,-0.04444 4.1317634,4.0496564 23.783333 0 0 0.04358,5.747864 l 9.490539,9.362897 H 51.680649 v 0.0083 a 4.1489151,4.0329151 0 0 0 -4.149569,4.032122 4.1489151,4.0329151 0 0 0 4.149569,4.033537 h 13.420717 l -9.491995,9.36434 0.0059,0.0055 a 4.0496564,4.1317634 66.216667 0 0 -0.04358,5.746425 4.0496564,4.1317634 66.216667 0 0 5.824797,-0.04299 l 9.496345,-9.368612 v 14.00991 a 4.0946778,4.0998922 0 0 0 -0.0056,0.230778 4.0946778,4.0998922 0 0 0 4.094352,4.099491 4.0946778,4.0998922 0 0 0 4.094352,-4.099491 V 84.665043 l 10.035386,9.900399 a 4.1386121,4.056369 23.783352 0 0 0.161386,0.166426 4.1386121,4.056369 23.783352 0 0 5.833518,0.04299 4.1386121,4.056369 23.783352 0 0 -0.04217,-5.755051 L 84.861583,78.954566 h 14.192212 a 4.1557922,4.0395999 0 0 0 0.233925,0.0055 4.1557922,4.0395999 0 0 0 4.15536,-4.039278 4.1557922,4.0395999 0 0 0 -4.15536,-4.039279 H 84.857225 l 10.03682,-9.901841 a 4.056369,4.1386121 66.216648 0 0 0.170102,-0.159215 4.056369,4.1386121 66.216648 0 0 0.04358,-5.755043 4.056369,4.1386121 66.216648 0 0 -5.833518,0.04299 L 79.076087,65.169388 V 51.932065 h -0.0084 a 4.0879019,4.0931076 0 0 0 -4.087098,-4.093753 z"
         transform="matrix(1.2915844,0,0,1.3031682,-22.050367,-22.634312)" /><ellipse
         style="opacity:1;fill:url(#radialGradient106);fill-opacity:1;stroke:url(#linearGradient7);stroke-width:1.17945;stroke-dasharray:none;stroke-dashoffset:0;stroke-opacity:1"
         id="path22"
         cx="74.975639"
         cy="74.906693"
         rx="5.3225431"
         ry="5.0023103" /></g></g><metadata
     id="metadata10"><rdf:RDF><cc:Work
         rdf:about=""><cc:license
           rdf:resource="http://creativecommons.org/licenses/by-sa/4.0/" /><dc:title>Signstar Logo</dc:title><dc:creator><cc:Agent><dc:title>David Runge</dc:title></cc:Agent></dc:creator></cc:Work><cc:License
         rdf:about="http://creativecommons.org/licenses/by-sa/4.0/"><cc:permits
           rdf:resource="http://creativecommons.org/ns#Reproduction" /><cc:permits
           rdf:resource="http://creativecommons.org/ns#Distribution" /><cc:requires
           rdf:resource="http://creativecommons.org/ns#Notice" /><cc:requires
           rdf:resource="http://creativecommons.org/ns#Attribution" /><cc:permits
           rdf:resource="http://creativecommons.org/ns#DerivativeWorks" /><cc:requires
           rdf:resource="http://creativecommons.org/ns#ShareAlike" /></cc:License></rdf:RDF></metadata></svg>
